<svg width="151" height="46" viewBox="0 0 151 46" fill="none" xmlns="http://www.w3.org/2000/svg">
<g clip-path="url(#clip0_439_16259)">
<path d="M50.8093 13.0205C52.5439 13.0205 53.702 14.0855 53.702 15.452C53.702 16.4595 53.2235 17.1187 51.7366 18.5785L49.8601 20.4161V20.4457H53.8329V21.6879H47.848V20.6509L50.8576 17.6954C51.9673 16.6056 52.2151 16.1827 52.2151 15.5469C52.2151 14.8053 51.654 14.2394 50.8108 14.2394C49.8897 14.2394 49.193 14.8628 49.193 15.7288H47.7654C47.7623 14.1461 49.0372 13.0205 50.8093 13.0205Z" fill="white"/>
<path d="M58.8235 20.0569H54.5732V18.7618C55.3104 17.3782 56.2612 15.8717 58.1096 13.1914H60.276V18.8085H61.4325V20.0569H60.276V21.6878H58.8235V20.0569ZM55.9432 18.8442H58.8468V14.3217H58.8235C57.4488 16.2883 56.6212 17.5663 55.9432 18.8023V18.8442Z" fill="white"/>
<path d="M66.4837 14.4631V14.4336H62.0574V13.1914H67.983V14.4569L64.3407 21.6878H62.7478L66.4837 14.4631Z" fill="white"/>
<path d="M73.7139 21.6878V14.4756H71.1641V13.1914H77.7755V14.4756H75.2319V21.6878H73.7139Z" fill="white"/>
<path d="M84.3261 21.6878H78.8135V13.1914H84.3261V14.4756H80.3362V16.7718H84.1079V17.9783H80.3362V20.4036H84.3261V21.6878Z" fill="white"/>
<path d="M85.3579 17.4373C85.3579 14.729 86.8978 13.0515 89.3182 13.0515C91.296 13.0515 92.8001 14.2813 92.9902 16.108H91.4909C91.2898 15.0431 90.4232 14.3419 89.3182 14.3419C87.8547 14.3419 86.9165 15.5437 86.9165 17.4388C86.9165 19.3464 87.8485 20.542 89.3245 20.542C90.4513 20.542 91.2602 19.9357 91.4971 18.9111H92.9902C92.7252 20.7301 91.3319 21.8308 89.3182 21.8308C86.8869 21.8293 85.3579 20.1626 85.3579 17.4373Z" fill="white"/>
<path d="M99.8059 21.6878V18.0016H95.6616V21.6878H94.1389V13.1914H95.6616V16.7236H99.8059V13.1914H101.322V21.6878H99.8059Z" fill="white"/>
<path d="M102.822 21.6878V13.1914H104.143L108.37 19.1443H108.423V13.1914H109.887V21.6878H108.576L104.344 15.7287H104.292V21.6878H102.822Z" fill="white"/>
<path d="M119.184 17.442C119.184 20.1441 117.625 21.8278 115.147 21.8278C112.663 21.8278 111.104 20.1441 111.104 17.442C111.104 14.74 112.663 13.05 115.147 13.05C117.625 13.05 119.184 14.74 119.184 17.442ZM112.661 17.442C112.661 19.3325 113.623 20.5327 115.145 20.5327C116.662 20.5327 117.63 19.331 117.63 17.442C117.63 15.5453 116.662 14.3451 115.145 14.3451C113.623 14.3451 112.661 15.5469 112.661 17.442Z" fill="white"/>
<path d="M125.781 21.6878H120.391V13.1914H121.914V20.4036H125.781V21.6878Z" fill="white"/>
<path d="M134.309 17.442C134.309 20.1441 132.751 21.8278 130.273 21.8278C127.788 21.8278 126.23 20.1441 126.23 17.442C126.23 14.74 127.788 13.05 130.273 13.05C132.751 13.05 134.309 14.74 134.309 17.442ZM127.787 17.442C127.787 19.3325 128.748 20.5327 130.271 20.5327C131.788 20.5327 132.755 19.331 132.755 17.442C132.755 15.5453 131.788 14.3451 130.271 14.3451C128.75 14.3451 127.787 15.5469 127.787 17.442Z" fill="white"/>
<path d="M139.261 21.8294C136.777 21.8294 135.229 20.1456 135.229 17.4078C135.229 14.7105 136.769 13.05 139.231 13.05C141.167 13.05 142.631 14.1927 142.908 15.8936H141.362C141.072 14.9157 140.282 14.3389 139.238 14.3389C137.702 14.3389 136.788 15.4754 136.788 17.3892C136.788 19.3434 137.745 20.539 139.278 20.539C140.566 20.539 141.455 19.7259 141.48 18.5365L141.487 18.3951H139.432V17.2353H142.974V18.1416C142.974 20.4457 141.593 21.8294 139.261 21.8294Z" fill="white"/>
<path d="M146.496 21.6878V18.3374L143.51 13.1914H145.18L147.245 16.8884H147.281L149.342 13.1914H151L148.014 18.3374V21.6878H146.496Z" fill="white"/>
<path d="M47.9727 28.911C47.9727 26.5463 49.2896 25.0352 51.3454 25.0352C52.9445 25.0352 54.2085 26.0768 54.4142 27.5522H53.6957C53.4853 26.4639 52.5206 25.7006 51.3454 25.7006C49.7401 25.7006 48.7067 26.9505 48.7067 28.9125C48.7067 30.901 49.7401 32.1618 51.3501 32.1618C52.5564 32.1618 53.4682 31.5182 53.6942 30.4719H54.4127C54.1446 31.9426 52.9866 32.8257 51.3438 32.8257C49.285 32.8241 47.9727 31.3005 47.9727 28.911Z" fill="white"/>
<path d="M62.0386 28.931C62.0386 31.3221 60.7123 32.824 58.5989 32.824C56.4902 32.824 55.1638 31.3221 55.1638 28.931C55.1638 26.5399 56.4902 25.0334 58.5989 25.0334C60.7076 25.0334 62.0386 26.5399 62.0386 28.931ZM55.8963 28.931C55.8963 30.9086 56.9406 32.1586 58.5973 32.1586C60.2541 32.1586 61.303 30.9086 61.303 28.931C61.303 26.9488 60.2541 25.6973 58.5973 25.6973C56.9406 25.6973 55.8963 26.9488 55.8963 28.931Z" fill="white"/>
<path d="M63.1499 32.7028V25.1548H63.8575L68.2947 31.459H68.3321V25.1548H69.0397V32.7043H68.3477L63.8949 26.3954H63.8575V32.7043H63.1499V32.7028Z" fill="white"/>
<path d="M70.801 30.6894C70.8899 31.5942 71.7346 32.1757 72.9191 32.1757C74.0569 32.1757 74.8704 31.574 74.8704 30.7158C74.8704 30.0038 74.3982 29.5747 73.2339 29.3088L72.411 29.1254C70.9054 28.7911 70.2758 28.1475 70.2758 27.1058C70.2758 25.887 71.3777 25.0334 72.8614 25.0334C74.3358 25.0334 75.4206 25.9072 75.4627 27.1214H74.7442C74.6709 26.2585 73.9213 25.6833 72.8459 25.6833C71.8234 25.6833 71.0099 26.2166 71.0099 27.0747C71.0099 27.7604 71.4759 28.1941 72.5996 28.446L73.4225 28.6341C74.9795 28.9839 75.6045 29.5762 75.6045 30.6225C75.6045 31.9611 74.5244 32.8255 72.8833 32.8255C71.2686 32.8255 70.162 31.9673 70.0825 30.6909H70.801V30.6894Z" fill="white"/>
<path d="M77.361 30.0241C77.361 31.2896 78.1902 32.1586 79.5742 32.1586C80.9644 32.1586 81.7874 31.2896 81.7874 30.0241V25.1548H82.5059V30.0676C82.5059 31.6938 81.3946 32.824 79.5742 32.824C77.7538 32.824 76.6472 31.6938 76.6472 30.0676V25.1548H77.361V30.0241Z" fill="white"/>
<path d="M88.4206 32.7028H83.9148V25.1548H84.6286V32.0545H88.4206V32.7028Z" fill="white"/>
<path d="M90.188 32.7028V25.8031H87.6912V25.1548H93.408V25.8031H90.9065V32.7028H90.188Z" fill="white"/>
<path d="M94.3103 32.7028V25.1548H95.0241V32.7043H94.3103V32.7028Z" fill="white"/>
<path d="M96.4395 32.7028V25.1548H97.147L101.584 31.459H101.622V25.1548H102.329V32.7043H101.637L97.1844 26.3954H97.147V32.7043H96.4395V32.7028Z" fill="white"/>
<path d="M106.838 32.824C104.787 32.824 103.439 31.2646 103.439 28.8844C103.439 26.5462 104.772 25.0334 106.838 25.0334C108.428 25.0334 109.65 25.9802 109.932 27.4246H109.187C108.877 26.3472 107.992 25.6989 106.837 25.6989C105.195 25.6989 104.173 26.9177 104.173 28.8844C104.173 30.8775 105.217 32.1601 106.837 32.1601C108.3 32.1601 109.265 31.2289 109.265 29.8063V29.5389H106.915V28.9108H109.977V29.6384C109.98 31.63 108.805 32.824 106.838 32.824Z" fill="white"/>
<path d="M0 11.8793V17.5928L13.8151 9.43227V12.0892L0 20.2482V21.7189V26.3768V29.0151V31.0331V35.1436L20.1148 23.2627V17.1357L6.29972 25.2947V22.6549L20.1148 14.4959V14.1927V8.36887V5.71191V4.87704V0L0 11.8793Z" fill="white"/>
<path d="M20.4265 23.2503V0.0668945L26.7247 3.61935V20.3509L34.4832 24.6651V7.92582L40.7705 11.4052L40.9746 34.7379L20.4265 23.2503Z" fill="white"/>
<path d="M20.7476 39.2884L12.1552 34.7565L20.2722 30.0271V23.5503L3.41476 33.5143L0.278931 35.327L0.317895 35.3457L0.311661 35.3488L6.03159 38.3245L6.03627 38.3213L20.799 45.9424V45.9999L40.772 35.0208L34.4364 31.4792L20.7476 39.2884Z" fill="white"/>
</g>
<defs>
<clipPath id="clip0_439_16259">
<rect width="151" height="46" fill="white"/>
</clipPath>
</defs>
</svg>
