<svg width="32" height="32" viewBox="0 0 32 32" fill="none" xmlns="http://www.w3.org/2000/svg">
<g clip-path="url(#clip0_166_244357)">
<path d="M26.667 5.33337H5.33366C3.86699 5.33337 2.68033 6.53337 2.68033 8.00004L2.66699 24C2.66699 25.4667 3.86699 26.6667 5.33366 26.6667H26.667C28.1337 26.6667 29.3337 25.4667 29.3337 24V8.00004C29.3337 6.53337 28.1337 5.33337 26.667 5.33337ZM26.1337 11L16.707 16.8934C16.2803 17.16 15.7203 17.16 15.2937 16.8934L5.86699 11C5.53366 10.7867 5.33366 10.4267 5.33366 10.04C5.33366 9.14671 6.30699 8.61337 7.06699 9.08004L16.0003 14.6667L24.9337 9.08004C25.6937 8.61337 26.667 9.14671 26.667 10.04C26.667 10.4267 26.467 10.7867 26.1337 11Z" fill="#43C4FF"/>
</g>
<defs>
<clipPath id="clip0_166_244357">
<rect width="32" height="32" fill="white"/>
</clipPath>
</defs>
</svg>
