<svg width="32" height="32" viewBox="0 0 32 32" fill="none" xmlns="http://www.w3.org/2000/svg">
<g clip-path="url(#clip0_166_244354)">
<path d="M25.3332 16H27.9999C27.9999 9.37333 22.6265 4 15.9999 4V6.66667C21.1599 6.66667 25.3332 10.84 25.3332 16ZM19.9999 16H22.6665C22.6665 12.32 19.6799 9.33333 15.9999 9.33333V12C18.2132 12 19.9999 13.7867 19.9999 16ZM17.6132 23.16C13.8399 21.24 10.7465 18.16 8.82654 14.3733L12.1999 11L11.3865 4H4.03987C3.26654 17.5733 14.4265 28.7333 27.9999 27.96V20.6133L20.9732 19.8L17.6132 23.16Z" fill="#43C4FF"/>
</g>
<defs>
<clipPath id="clip0_166_244354">
<rect width="32" height="32" fill="white"/>
</clipPath>
</defs>
</svg>
