<svg width="32" height="32" viewBox="0 0 32 32" fill="none" xmlns="http://www.w3.org/2000/svg">
<g clip-path="url(#clip0_166_244341)">
<path d="M15.9997 16C17.4663 16 18.6663 14.8 18.6663 13.3333C18.6663 11.8666 17.4663 10.6666 15.9997 10.6666C14.533 10.6666 13.333 11.8666 13.333 13.3333C13.333 14.8 14.533 16 15.9997 16ZM15.9997 2.66663C21.5997 2.66663 26.6663 6.95996 26.6663 13.6C26.6663 17.84 23.3997 22.8266 16.8797 28.5733C16.373 29.0133 15.613 29.0133 15.1063 28.5733C8.59967 22.8266 5.33301 17.84 5.33301 13.6C5.33301 6.95996 10.3997 2.66663 15.9997 2.66663Z" fill="#43C4FF"/>
</g>
<defs>
<clipPath id="clip0_166_244341">
<rect width="32" height="32" fill="white"/>
</clipPath>
</defs>
</svg>
